<svg width="41" height="40" viewBox="0 0 41 40" fill="none" xmlns="http://www.w3.org/2000/svg">
<path fill-rule="evenodd" clip-rule="evenodd" d="M40.0278 20C40.0278 31.0457 31.0673 40 20.0139 40C8.96052 40 0 31.0457 0 20C0 8.9543 8.96052 0 20.0139 0C31.0673 0 40.0278 8.9543 40.0278 20ZM35.0243 20C35.0243 28.2843 28.3039 35 20.0139 35C11.7239 35 5.00347 28.2843 5.00347 20C5.00347 11.7157 11.7239 5 20.0139 5C28.3039 5 35.0243 11.7157 35.0243 20ZM20.0139 30C25.5405 30 30.0208 25.5228 30.0208 20H10.0069C10.0069 25.5228 14.4872 30 20.0139 30ZM13.14 11.749C13.7104 11.4213 14.3569 11.2493 15.0148 11.25C15.6727 11.2508 16.3188 11.4244 16.8884 11.7534C17.458 12.0824 17.931 12.5553 18.26 13.1246C18.6055 13.7224 18.4007 14.4869 17.8024 14.8321C17.2042 15.1774 16.4391 14.9727 16.0936 14.3748C15.984 14.1851 15.8263 14.0275 15.6364 13.9178C15.4466 13.8081 15.2312 13.7502 15.0119 13.75C14.7926 13.7498 14.5771 13.8071 14.387 13.9163C14.1969 14.0256 14.0388 14.1828 13.9287 14.3723C13.5818 14.9694 12.8163 15.1724 12.2189 14.8257C11.6214 14.4791 11.4183 13.7141 11.7652 13.1171C12.0955 12.5485 12.5696 12.0767 13.14 11.749ZM25.0216 11.25C24.3638 11.2493 23.7173 11.4213 23.147 11.749C22.5766 12.0767 22.1025 12.5485 21.7722 13.1171C21.4253 13.7141 21.6284 14.4791 22.2258 14.8257C22.8232 15.1724 23.5888 14.9694 23.9356 14.3723C24.0458 14.1828 24.2038 14.0256 24.3939 13.9163C24.584 13.8071 24.7995 13.7498 25.0189 13.75C25.238 13.7502 25.4534 13.8081 25.6433 13.9178C25.8332 14.0275 25.991 14.1851 26.1006 14.3748C26.4461 14.9727 27.2111 15.1774 27.8093 14.8321C28.4077 14.4869 28.6126 13.7224 28.2669 13.1246C27.9379 12.5553 27.4651 12.0824 26.8954 11.7534C26.3258 11.4244 25.6796 11.2508 25.0216 11.25Z" fill="white"/>
</svg>
