<svg width="67" height="54" viewBox="0 0 67 54" fill="none" xmlns="http://www.w3.org/2000/svg">
<path d="M65.9993 28.2035C64.7647 19.8737 60.4769 12.3304 54 7.0939C48.0696 2.40082 40.7498 -0.0995065 33.2414 0.00303277C26.2853 0.146653 19.514 2.3097 13.7226 6.2381C9.61529 9.13904 6.23891 12.9878 3.86868 17.4707C1.49846 21.9536 0.201487 26.9436 0.083481 32.0342C-0.412881 38.9522 1.31397 45.8469 5.00317 51.6767C5.55994 52.4094 6.27595 53.0006 7.09491 53.4036C7.91386 53.8067 8.81343 54.0107 9.72286 53.9996C10.6025 54.0007 11.4732 53.8205 12.2827 53.4698C13.5173 52.8973 14.506 51.8877 15.0651 50.6285C15.6242 49.3693 15.7156 47.9462 15.3225 46.6234C15.3449 46.4886 15.3449 46.3508 15.3225 46.2159C15.3225 46.2159 8.92291 33.9903 14.8825 23.517L14.8425 23.1502C16.6067 19.7646 19.2639 16.9482 22.5147 15.0186C25.7655 13.0889 29.4806 12.1227 33.2414 12.2287C36.9732 12.2989 40.6257 13.339 43.8525 15.2503C47.0793 17.1616 49.7737 19.8808 51.6802 23.1502C54.146 27.5128 54.9706 32.6402 54 37.5765L34.0013 29.9151C33.8112 29.802 33.5993 29.7324 33.3802 29.711C33.1611 29.6896 32.94 29.7169 32.7323 29.7911C32.5246 29.8653 32.3352 29.9846 32.1772 30.1407C32.0191 30.2968 31.8963 30.486 31.817 30.6952C31.7378 30.9044 31.7042 31.1287 31.7184 31.3525C31.7326 31.5763 31.7943 31.7943 31.8994 31.9914C32.0044 32.1884 32.1502 32.3599 32.3266 32.494C32.5031 32.628 32.706 32.7214 32.9214 32.7677L53.2401 40.4699C52.8681 41.8709 52.3728 43.2348 51.7602 44.5451C51.2785 45.3725 50.979 46.2966 50.8823 47.2535C50.7856 48.2104 50.8941 49.1773 51.2002 50.0874C51.455 50.8108 51.8527 51.4733 52.3686 52.0341C52.8846 52.5948 53.5079 53.0418 54.2 53.3475C56.7998 54.4478 60.3996 54.5701 62.9994 48.8648C66.1707 42.491 67.2235 35.2398 65.9993 28.2035ZM12.4427 47.2755C12.635 47.8879 12.5984 48.5512 12.3401 49.1379C12.0817 49.7246 11.6197 50.1933 11.0428 50.4541C10.4408 50.7533 9.75696 50.8356 9.10309 50.6876C8.44923 50.5395 7.86399 50.1699 7.44301 49.6391C4.19728 44.4797 2.66858 38.3924 3.08329 32.2787C3.40028 27.9066 4.48402 23.6279 6.28308 19.6455L11.6027 22.8242C9.93437 26.7032 9.1436 30.9148 9.289 35.1473C9.43439 39.3798 10.5122 43.5248 12.4427 47.2755ZM13.2426 20.1753L7.72299 16.9967C9.83682 13.7697 12.5553 10.9999 15.7225 8.84624C20.5654 5.52605 26.1786 3.55877 32.0014 3.14095V9.21301C28.2291 9.31896 24.5414 10.3757 21.2679 12.2886C17.9944 14.2016 15.2371 16.9113 13.2426 20.1753ZM35.0012 9.21301V3.10019C41.1795 3.32698 47.1292 5.53783 52.0001 9.41677C54.6376 11.5894 56.9193 14.1755 58.7597 17.0782L53.2401 20.2161C51.1641 17.1177 48.442 14.5248 45.2684 12.6227C42.0947 10.7206 38.5478 9.5563 34.8812 9.21301H35.0012ZM60.3596 47.6015C58.4397 51.6767 56.3599 51.0654 55.4399 50.5764C54.8194 50.2822 54.3328 49.7573 54.08 49.1093C53.938 48.5855 53.9002 48.0381 53.9689 47.4992C54.0376 46.9603 54.2113 46.4409 54.48 45.9714C55.1527 44.6693 55.7019 43.3047 56.1199 41.8962L57.2798 42.3445C57.4646 42.3829 57.655 42.3829 57.8398 42.3445C58.1455 42.3332 58.4411 42.2306 58.69 42.0495C58.9389 41.8683 59.1301 41.6166 59.2397 41.3257C59.3705 40.947 59.3518 40.5314 59.1876 40.1665C59.0235 39.8015 58.7267 39.5158 58.3597 39.3696L56.8398 38.799C57.9445 33.4884 57.2831 27.9542 54.96 23.0687L60.2396 20.0123C61.6297 22.8179 62.5747 25.8301 63.0394 28.937C64.1366 35.2903 63.197 41.8347 60.3596 47.6015Z" fill="white"/>
<path d="M24.722 17.0372C24.4498 17.0292 24.1815 17.1046 23.9518 17.2537C23.7221 17.4028 23.5417 17.6187 23.4338 17.8735C23.326 18.1282 23.2957 18.4101 23.3469 18.6826C23.3981 18.9552 23.5284 19.2057 23.7209 19.4019C23.9135 19.5981 24.1594 19.7309 24.4269 19.7831C24.6944 19.8352 24.9711 19.8044 25.2211 19.6945C25.4712 19.5846 25.6831 19.4007 25.8294 19.1667C25.9758 18.9327 26.0498 18.6594 26.0419 18.382C26.0318 18.0286 25.8895 17.6925 25.6441 17.4424C25.3988 17.1924 25.0689 17.0475 24.722 17.0372Z" fill="white"/>
<path d="M41.801 19.6452C42.53 19.6452 43.1209 19.0431 43.1209 18.3004C43.1209 17.5577 42.53 16.9556 41.801 16.9556C41.072 16.9556 40.4811 17.5577 40.4811 18.3004C40.4811 19.0431 41.072 19.6452 41.801 19.6452Z" fill="white"/>
<path d="M52.6403 33.8272C52.6482 33.5516 52.5753 33.2798 52.4308 33.0466C52.2863 32.8135 52.0768 32.6296 51.8291 32.5184C51.5814 32.4073 51.3068 32.374 51.0404 32.4227C50.774 32.4715 50.528 32.6001 50.3338 32.7922C50.1396 32.9842 50.006 33.231 49.9502 33.5008C49.8944 33.7706 49.9189 34.0513 50.0206 34.3068C50.1222 34.5624 50.2964 34.7813 50.5208 34.9354C50.7452 35.0895 51.0097 35.1719 51.2803 35.172C51.6342 35.1722 51.9742 35.0318 52.2281 34.7807C52.482 34.5296 52.6299 34.1876 52.6403 33.8272Z" fill="white"/>
<path d="M15.5626 32.4828C15.3034 32.4908 15.0523 32.5764 14.8405 32.729C14.6288 32.8815 14.4659 33.0943 14.3721 33.3406C14.2783 33.5869 14.2578 33.8559 14.3131 34.1141C14.3685 34.3722 14.4973 34.608 14.6833 34.792C14.8694 34.976 15.1046 35.1001 15.3595 35.1488C15.6144 35.1975 15.8777 35.1686 16.1165 35.0657C16.3554 34.9628 16.5592 34.7905 16.7026 34.5703C16.8459 34.3502 16.9224 34.0918 16.9225 33.8276C16.9226 33.6475 16.8872 33.4693 16.8184 33.3034C16.7496 33.1375 16.6488 32.9874 16.5219 32.862C16.3951 32.7366 16.2448 32.6384 16.08 32.5732C15.9152 32.5081 15.7393 32.4773 15.5626 32.4828Z" fill="white"/>
</svg>
