<svg width="94" height="56" viewBox="0 0 94 56" fill="none" xmlns="http://www.w3.org/2000/svg">
<path fill-rule="evenodd" clip-rule="evenodd" d="M22.0156 52.1701C14.9666 53.3968 7.82516 54.0195 0.669624 54.0313V54.0305C-0.0716705 54.0419 -0.288734 55.2467 0.489418 55.3639C8.73122 56.474 17.1045 56.1291 25.2265 54.3451C39.6583 51.3586 53.23 45.1665 64.9329 36.229C70.8286 31.7616 76.1918 26.6352 80.9178 20.9502C83.4268 17.8734 85.7436 14.6495 87.8565 11.2971L87.8721 11.2192C88.2895 9.14096 88.7131 7.06588 89.1498 4.99324C89.4348 4.95391 89.7203 4.91716 90.0061 4.88299C91.479 4.71202 91.5651 2.48777 90.0061 2.52098C89.896 2.52274 89.786 2.52506 89.6759 2.52793C89.7756 2.06751 89.8759 1.6072 89.9772 1.14699L92.8564 2.35704C91.3462 5.42459 89.6771 8.40857 87.8565 11.2971L86.921 15.9845C87.0641 15.7424 87.3272 15.5874 87.6182 15.5874C87.9741 15.5874 88.2883 15.8194 88.3922 16.159C88.6863 17.3426 88.8521 18.5179 89.0198 19.7071C89.0763 20.1076 89.133 20.5098 89.1949 20.9143L85.97 21.3509C85.9958 22.0523 86.4721 22.6829 87.182 22.8781C88.0372 23.1133 88.9259 22.6326 89.1949 21.7893C89.6741 20.1398 90.0259 18.4561 90.2475 16.753L91.1854 11.9075C91.8284 8.60529 92.4386 5.29624 93.0161 1.98038C93.2072 1.22289 92.8208 0.438679 92.1028 0.126907C91.3787 -0.183392 90.5362 0.0921669 90.1369 0.769924C89.8632 1.36353 89.5825 1.95362 89.295 2.54007C87.2177 2.61832 85.1519 2.89325 83.1256 3.36148C81.9574 3.6458 80.81 4.00964 79.6915 4.45044C78.701 4.70173 77.8046 5.23449 77.1108 5.98425C76.9527 6.25651 76.9297 6.5866 77.0485 6.87814C77.1673 7.16968 77.4146 7.38979 77.718 7.47419C78.7029 7.51411 79.6835 7.32374 80.5818 6.91823C81.5212 6.63092 82.4746 6.38626 83.4291 6.14132C83.5084 6.12095 83.5878 6.10058 83.6672 6.08019C85.0782 5.71335 86.5051 5.41149 87.9431 5.17546C84.9051 10.8437 81.2081 16.1419 76.9247 20.9588C67.4378 31.7339 55.6707 40.2733 42.4729 45.9605C35.9076 48.7857 29.0457 50.8685 22.0156 52.1701ZM86.4563 18.0242C86.5764 17.4352 86.7125 16.8494 86.8646 16.2673L86.921 15.9845C86.889 16.0386 86.8631 16.097 86.8441 16.159C86.6861 16.7819 86.5629 17.4026 86.4563 18.0242ZM86.4563 18.0242C86.2318 19.1244 86.0633 20.2355 85.9513 21.3534L85.97 21.3509C85.9647 21.2073 85.9783 21.0607 86.0127 20.9143C86.0748 20.5215 86.1323 20.131 86.1895 19.742C86.2741 19.167 86.3583 18.5952 86.4563 18.0242Z" fill="#EF6D58"/>
</svg>
