<svg width="25" height="24" viewBox="0 0 25 24" fill="none" xmlns="http://www.w3.org/2000/svg">
<path fill-rule="evenodd" clip-rule="evenodd" d="M2.83008 0.765296C3.36135 0.235151 4.09472 -0.0416708 4.84402 0.0050961C5.59333 0.051863 6.28653 0.417722 6.74768 1.00981L9.44196 4.46897C9.93579 5.10349 10.1099 5.93003 9.91478 6.71007L9.09373 9.99522C9.00739 10.3413 9.10877 10.7073 9.36091 10.9598L13.0489 14.6454C13.3018 14.8979 13.6687 14.9993 14.0155 14.9124L17.3012 14.0919C18.0816 13.8969 18.9084 14.0711 19.5437 14.5644L23.0049 17.2555C24.2493 18.2231 24.3633 20.0607 23.2496 21.1722L21.6976 22.7233C20.5868 23.8333 18.9267 24.3209 17.3792 23.7763C13.4184 22.3836 9.82212 20.1174 6.85725 17.146C3.88421 14.1834 1.61669 10.5899 0.222854 6.63206C-0.320506 5.08699 0.167317 3.42642 1.27805 2.31637L2.83008 0.765296Z" fill="white"/>
</svg>
