<svg width="17" height="18" viewBox="0 0 17 18" fill="none" xmlns="http://www.w3.org/2000/svg">
<path fill-rule="evenodd" clip-rule="evenodd" d="M17 17.0407H13.6V11.0773C13.6 9.44136 12.8801 8.52866 11.5889 8.52866C10.1839 8.52866 9.35 9.4797 9.35 11.0773V17.0407H5.95V5.96423H9.35V7.20983C9.35 7.20983 10.4167 5.33353 12.8205 5.33353C15.2252 5.33353 17 6.80443 17 9.84789V17.0407ZM2.0757 4.19277C0.929051 4.19277 0 3.25388 0 2.09597C0 0.938908 0.929051 0 2.0757 0C3.2215 0 4.15055 0.938908 4.15055 2.09597C4.1514 3.25388 3.2215 4.19277 2.0757 4.19277ZM0 17.0407H4.25V5.96423H0V17.0407Z" fill="white"/>
</svg>
