<svg width="49" height="48" viewBox="0 0 49 48" fill="none" xmlns="http://www.w3.org/2000/svg">
<path fill-rule="evenodd" clip-rule="evenodd" d="M16.3684 47.5051C16.0521 47.8219 15.6227 48 15.1749 48C14.727 48 14.2976 47.8219 13.9813 47.5051L0.495369 34.0285C0.178307 33.7124 0.000114441 33.2833 0.000114441 32.8358C0.000114441 32.3883 0.178307 31.9592 0.495369 31.6431L6.90795 25.235L9.70292 14.073C10.1353 12.3439 11.4471 10.9703 13.1553 10.4579L48.0334 0L37.5683 34.8573C37.0552 36.5621 35.6822 37.8714 33.9541 38.3039L22.7843 41.0936L16.3684 47.5051ZM22.4371 37.7076L33.1348 35.0359C33.7126 34.8918 34.1714 34.4538 34.3418 33.8836L43.0066 5.02678L43.0028 5.02791L42.9155 5.31653L28.6608 22.7283C28.6608 24.5891 27.1513 26.0975 25.2893 26.0975C23.4273 26.0975 21.9178 24.5891 21.9178 22.7283C21.9178 20.8676 23.4273 19.3592 25.2893 19.3592L42.7125 5.11493L14.123 13.6855C13.5559 13.8572 13.1207 14.3139 12.9767 14.8883L10.2997 25.582L22.4371 37.711V37.7076Z" fill="white"/>
</svg>
