<svg width="25" height="18" viewBox="0 0 25 18" fill="none" xmlns="http://www.w3.org/2000/svg">
<path fill-rule="evenodd" clip-rule="evenodd" d="M3.00203 6.87769e-09C1.6013 -9.42103e-05 0.386663 0.967828 0.075 2.3325L12.0083 9.621L23.9416 2.3325C23.6299 0.967828 22.4153 -9.42103e-05 21.0145 6.87769e-09H3.00203ZM0 14.7015V4.0455L8.71054 9.3645L0 14.7015ZM10.1483 10.245L0.2865 16.2855C0.783855 17.3335 1.8412 18.0011 3.00188 18H21.0144C22.1749 18.0003 23.2316 17.3321 23.7283 16.284L13.8664 10.2435L12.0081 11.379L10.1483 10.2435V10.245ZM24.0165 14.7014L15.3059 9.36591V9.36441L24.0165 4.04541V14.7014Z" fill="white"/>
</svg>
