<svg width="16" height="17" viewBox="0 0 16 17" fill="none" xmlns="http://www.w3.org/2000/svg">
<path fill-rule="evenodd" clip-rule="evenodd" d="M8 0C5.82667 0 5.556 0.00935566 4.70133 0.0494514C1.79467 0.183104 0.181333 1.79896 0.048 4.71258C0.00933333 5.56929 0 5.84194 0 8.01914C0 10.1977 0.00933333 10.4703 0.048 11.3257C0.181333 14.238 1.79467 15.8565 4.70133 15.9902C5.556 16.0289 5.82667 16.0383 8 16.0383C10.1733 16.0383 10.4453 16.0289 11.3 15.9902C14.2013 15.8565 15.8213 14.2407 15.952 11.3257C15.9907 10.4703 16 10.1977 16 8.01914C16 5.84194 15.9907 5.56929 15.952 4.71258C15.8213 1.80297 14.2067 0.181767 11.3 0.0494514C10.4453 0.00935566 10.1733 0 8 0ZM8.00007 1.44606C10.1361 1.44606 10.3894 1.45408 11.2334 1.49284C13.4027 1.59174 14.4134 2.6222 14.5134 4.77935C14.5507 5.62537 14.5587 5.87797 14.5587 8.01908C14.5587 10.1602 14.5507 10.4141 14.5134 11.2588C14.4134 13.4146 13.4041 14.4478 11.2334 14.5467C10.3894 14.5841 10.1374 14.5934 8.00007 14.5934C5.86407 14.5934 5.61074 14.5854 4.76807 14.5467C2.59474 14.4464 1.58807 13.412 1.48807 11.2588C1.45074 10.4141 1.44141 10.1602 1.44141 8.01908C1.44141 5.87797 1.45074 5.62403 1.48807 4.77935C1.58674 2.62087 2.59741 1.59041 4.76807 1.4915C5.61074 1.45275 5.86407 1.44606 8.00007 1.44606ZM3.89209 8.01921C3.89209 5.74445 5.73209 3.90139 8.00009 3.90139C10.2681 3.90139 12.1081 5.74579 12.1081 8.01921C12.1081 10.294 10.2681 12.137 8.00009 12.137C5.73209 12.137 3.89209 10.294 3.89209 8.01921ZM7.99992 10.6921C6.52659 10.6921 5.33325 9.4959 5.33325 8.01904C5.33325 6.54352 6.52659 5.346 7.99992 5.346C9.47192 5.346 10.6679 6.54218 10.6679 8.01904C10.6679 9.4959 9.47192 10.6921 7.99992 10.6921ZM11.3093 3.73966C11.3093 3.20773 11.74 2.77737 12.2693 2.77737C12.8013 2.77737 13.2307 3.20773 13.2307 3.73966C13.2307 4.2716 12.8 4.70196 12.2693 4.70196C11.7387 4.70196 11.3093 4.27026 11.3093 3.73966Z" fill="white"/>
</svg>
