<svg width="20" height="26" viewBox="0 0 20 26" fill="none" xmlns="http://www.w3.org/2000/svg">
<path d="M9.5066 0C4.25658 0 0 4.36556 0 9.75C0 11.8702 0.677741 13.8158 1.80427 15.4091C1.82447 15.4473 1.82764 15.4899 1.85062 15.5265L8.18835 25.2765C8.48226 25.7286 8.9774 26 9.5066 26C10.0358 26 10.5309 25.7286 10.8248 25.2765L17.1626 15.5265C17.1859 15.4899 17.1887 15.4473 17.2089 15.4091C18.3355 13.8158 19.0132 11.8702 19.0132 9.75C19.0132 4.36556 14.7566 0 9.5066 0ZM9.5066 13C7.75659 13 6.33773 11.5448 6.33773 9.75C6.33773 7.95519 7.75659 6.5 9.5066 6.5C11.2566 6.5 12.6755 7.95519 12.6755 9.75C12.6755 11.5448 11.2566 13 9.5066 13Z" fill="white"/>
</svg>
