<svg width="112" height="61" viewBox="0 0 112 61" fill="none" xmlns="http://www.w3.org/2000/svg">
<path fill-rule="evenodd" clip-rule="evenodd" d="M17.4193 18.7182C11.5767 13.0402 6.22487 6.87602 1.4223 0.293092L1.42304 0.292549C0.916166 -0.382639 -0.331105 0.217467 0.0827542 1.01206C4.58664 9.34049 10.5094 16.8239 17.5801 23.1201C29.9761 34.4295 44.7281 42.818 60.7397 47.6621C68.774 50.1257 77.0544 51.6613 85.419 52.2391C89.9134 52.5067 94.4136 52.4998 98.8948 52.2197L98.9765 52.1823C100.965 51.2743 102.954 50.3729 104.949 49.4823C105.878 50.1647 107.196 49.4681 107.186 48.4894C107.989 48.135 108.793 47.7827 109.599 47.4326L110.42 50.8881C106.603 51.5342 102.756 51.9784 98.8948 52.2197L93.981 54.4708C94.2983 54.4418 94.6162 54.5812 94.8111 54.8492C95.0495 55.1771 95.0476 55.6206 94.8066 55.9418C93.921 56.9987 92.9569 57.9319 91.9816 58.876C91.6531 59.1941 91.3233 59.5133 90.9947 59.839L88.4358 57.1585C87.8115 57.6481 87.5537 58.5056 87.8505 59.289C88.2082 60.2329 89.243 60.7323 90.1944 60.4201C92.024 59.766 93.7996 58.972 95.5057 58.0451L100.566 55.6912C104.017 54.0905 107.452 52.4551 110.871 50.7851C111.692 50.4581 112.151 49.5814 111.955 48.713C111.754 47.84 110.938 47.247 110.051 47.3293C109.038 47.5275 108.022 47.7087 107.004 47.8728C106.971 47.8169 106.933 47.7608 106.89 47.7047C105.311 45.6045 103.515 43.6768 101.531 41.9538C100.491 41.0718 99.3915 40.2618 98.2411 39.5296C97.3499 38.7886 96.2631 38.3214 95.1123 38.1847C94.7569 38.2211 94.4386 38.4199 94.2503 38.7232C94.0619 39.0264 94.0248 39.3999 94.1497 39.7345C94.7698 40.6645 95.5985 41.4371 96.5698 41.9908C97.4599 42.661 98.3203 43.3724 99.1816 44.0846C99.2532 44.1439 99.3248 44.2031 99.3965 44.2623C100.946 45.5352 102.423 46.8929 103.82 48.3292C96.8387 49.2069 89.7657 49.2881 82.7371 48.5668C66.5287 46.9842 50.8381 41.8166 36.7983 33.4372C29.8177 29.2662 23.3175 24.3291 17.4193 18.7182ZM91.8041 55.3973C92.4233 55.1168 93.0503 54.8531 93.6845 54.6066L93.981 54.4708C93.9101 54.4773 93.8393 54.4922 93.7698 54.5159C93.0943 54.7839 92.4442 55.0827 91.8041 55.3973ZM91.8041 55.3973C90.6476 55.9212 89.5184 56.5038 88.4209 57.143L88.4358 57.1585C88.5636 57.0583 88.7068 56.9735 88.8637 56.9079C89.2645 56.7043 89.6602 56.4979 90.0543 56.2923C90.6369 55.9884 91.2163 55.6862 91.8041 55.3973Z" fill="#8082A5"/>
</svg>
