<svg width="16" height="14" viewBox="0 0 16 14" fill="none" xmlns="http://www.w3.org/2000/svg">
<path d="M16 1.54368C15.412 1.80564 14.7787 1.98206 14.1147 2.06225C14.7933 1.65462 15.312 1.01041 15.5587 0.241911C14.924 0.61881 14.2213 0.892797 13.4733 1.03981C12.876 0.39962 12.0213 0 11.0787 0C8.95867 0 7.40133 1.98206 7.88 4.04031C5.15333 3.90265 2.73333 2.59285 1.11467 0.602772C0.254667 2.08097 0.669333 4.01625 2.13067 4.99592C1.59333 4.97855 1.088 4.83019 0.645333 4.58427C0.609333 6.10791 1.7 7.53398 3.27867 7.85207C2.81733 7.97771 2.31067 8.00711 1.796 7.90821C2.21333 9.21533 3.428 10.1656 4.86267 10.1923C3.48 11.2776 1.74267 11.7627 0 11.5569C1.45333 12.4911 3.17733 13.0351 5.03067 13.0351C11.1267 13.0351 14.5693 7.87479 14.3613 3.24641C15.004 2.78398 15.56 2.20393 16 1.54368Z" fill="white"/>
</svg>
