<svg width="118" height="150" viewBox="0 0 118 150" fill="none" xmlns="http://www.w3.org/2000/svg">
<path fill-rule="evenodd" clip-rule="evenodd" d="M86.8699 134.337C96.848 127.91 106.826 121.483 116.876 115.169C117.767 114.606 118.466 116.046 117.613 116.614L117.422 116.741C113.786 119.161 110.153 121.577 106.495 123.963C93.4083 132.485 80.3221 141.009 67.2368 149.535C66.8445 149.725 66.3771 149.664 66.0462 149.382C65.7153 149.099 65.5836 148.647 65.7108 148.23C66.673 146.149 67.6214 144.06 68.5699 141.971C69.6386 139.618 70.7074 137.264 71.796 134.92C78.6416 120.19 85.4865 105.461 92.3305 90.7316C93.3565 90.2919 94.384 89.8553 95.413 89.4218L93.641 87.9112C93.2042 88.8513 92.7673 89.7915 92.3305 90.7316C89.8407 91.7988 87.3597 92.8844 84.8876 93.9885C72.6014 99.4834 60.5566 105.447 48.7533 111.88C48.2077 112.138 47.5574 112.009 47.1525 111.562C46.7476 111.115 46.6836 110.456 46.995 109.94L53.332 98.4106C60.2234 85.9593 67.1148 73.5099 74.0061 61.0626C75.0922 60.7057 76.1799 60.3544 77.2694 60.0086L75.7864 57.8471C75.193 58.9189 74.5996 59.9908 74.0061 61.0626C71.7177 61.8146 69.437 62.5914 67.164 63.3928C55.4293 67.5438 43.918 72.301 32.6769 77.6451C32.0799 77.929 31.3673 77.7884 30.9236 77.2992C30.4799 76.81 30.4099 76.0878 30.7514 75.5222C36.9349 65.2817 43.117 55.04 49.2975 44.7973C50.7067 44.2781 52.1093 43.7399 53.5048 43.1828L51.5651 41.039C50.8092 42.2918 50.0534 43.5445 49.2975 44.7973C42.1369 47.4353 34.8031 49.5831 27.3471 51.225C26.7546 51.333 26.154 51.0832 25.8135 50.5872C25.473 50.0912 25.4561 49.4415 25.7703 48.9281C29.7879 43.924 33.2315 38.4888 36.0382 32.7246C36.7879 32.763 37.5376 32.8014 38.2874 32.84L36.925 30.8461C36.6369 31.476 36.3413 32.1022 36.0382 32.7246C32.8963 32.5639 29.7544 32.4046 26.6126 32.2469L23.8162 32.1103C23.0264 32.1554 22.2342 32.1008 21.4582 31.9477C20.638 31.4523 19.951 30.7649 19.4563 29.9448L17.9152 28.1053C15.8012 25.5642 13.7444 22.9763 11.7449 20.3416C9.15934 16.9267 6.66349 13.452 4.25738 9.91747C4.31638 10.6543 4.37184 11.3909 4.42732 12.1276C4.47 12.6944 4.51269 13.2613 4.55699 13.8285C4.57268 14.0388 4.58655 14.2497 4.60043 14.4608C4.63012 14.9122 4.65987 15.3646 4.70764 15.8145C4.86041 16.5457 4.77692 17.3 4.46992 17.9623C4.27113 18.2722 3.92425 18.4467 3.55663 18.4217C3.18901 18.3967 2.85481 18.1758 2.67677 17.8403C2.32983 17.1524 2.1782 16.384 2.23963 15.6251L2.11406 13.6406C2.08764 13.2203 2.06062 12.8 2.0336 12.3796C1.96851 11.3671 1.90341 10.3544 1.84663 9.34109L1.65723 6.02119C1.15673 5.25602 0.660331 4.48813 0.168041 3.71749C-0.0530753 3.27263 -0.0562826 2.75064 0.159347 2.30285C0.374977 1.85506 0.785328 1.53158 1.27142 1.4262C1.36461 1.40595 1.45791 1.38647 1.55129 1.36777C1.56612 1.1669 1.58384 0.966328 1.60445 0.766064L1.60995 0.770954C1.60563 0.841466 1.60992 0.913954 1.62366 0.987077C1.63587 1.10831 1.64185 1.22941 1.6417 1.34991C1.8132 1.3165 1.985 1.28569 2.15702 1.25748L1.60995 0.770954C1.6325 0.401803 1.89056 0.0865807 2.26001 0.0148709C2.70001 -0.0705481 3.13834 0.220453 3.24911 0.671539C3.28397 0.815329 3.31737 0.959384 3.34932 1.10371C6.57678 0.79962 9.84008 1.39572 12.7681 2.84614C13.5116 3.33052 13.7278 4.32145 13.2538 5.07159C12.756 5.79794 11.7782 6.01176 11.0228 5.55945C8.9102 4.56041 6.59307 4.10972 4.28295 4.23064C4.09775 3.94572 3.91311 3.66041 3.72906 3.37473C3.76273 3.6704 3.79038 3.96664 3.81198 4.26323C3.96889 4.24972 4.12591 4.23886 4.28295 4.23064C9.89441 12.8632 16.0339 21.1421 22.6665 29.0202C22.4505 29.0087 22.2344 28.9971 22.0184 28.9855L23.0521 29.4771C22.9234 29.3249 22.7949 29.1726 22.6665 29.0202C26.9305 29.2472 31.1959 29.4492 35.4623 29.6512C36.4635 29.6986 37.4648 29.746 38.4661 29.7937C38.9366 29.8254 39.3664 30.071 39.6322 30.4599C39.898 30.8489 39.9703 31.3383 39.8284 31.7876C37.357 37.2674 34.3279 42.4749 30.791 47.3285C29.4448 47.657 28.0942 47.9683 26.7394 48.2621L28.3176 50.5618C29.1676 49.5027 29.9922 48.4246 30.791 47.3285C38.0566 45.5555 45.1918 43.279 52.1445 40.515C52.7468 40.2323 53.4631 40.3755 53.9096 40.868C54.3561 41.3604 54.4281 42.0866 54.087 42.6574C47.9853 52.75 41.8832 62.8438 35.7808 72.9386C34.291 73.6137 32.8065 74.3001 31.328 74.9997L33.2507 77.124C34.0941 75.7288 34.9374 74.3337 35.7808 72.9386C37.544 72.1395 39.3146 71.3561 41.0915 70.585C52.7266 65.5314 64.6108 61.0709 76.6981 57.2209C77.2548 57.1252 77.816 57.362 78.1351 57.8273C78.4543 58.2925 78.4728 58.901 78.1826 59.3851C76.0566 63.2198 73.9296 67.0526 71.8017 70.8835C65.0793 83.0378 58.3344 95.1798 51.5672 107.309C50.2152 108.022 48.8666 108.74 47.5213 109.464L49.2824 111.403C50.0443 110.038 50.8059 108.674 51.5672 107.309C53.5996 106.239 55.6396 105.181 57.6871 104.136C69.6726 98.0194 81.8668 92.367 94.2695 87.179C95.1578 86.8043 96.5494 87.6033 96.0401 88.6868L89.8338 101.96C82.9947 116.517 76.1552 131.073 69.3153 145.628C68.2931 146.285 67.2709 146.941 66.2487 147.597L67.7774 148.9C68.2901 147.81 68.8027 146.719 69.3153 145.628C72.0252 143.888 74.7351 142.146 77.445 140.403C80.5881 138.383 83.729 136.36 86.8699 134.337Z" fill="#8082A5"/>
</svg>
