<svg width="283" height="242" viewBox="0 0 283 242" fill="none" xmlns="http://www.w3.org/2000/svg">
<path fill-rule="evenodd" clip-rule="evenodd" d="M203.198 13.3681C192.858 3.30359 178.477 -1.47454 164.167 0.40008C150.233 2.36018 137.854 10.3158 130.288 22.1741C125.968 28.8233 123.336 36.4257 122.622 44.3216L124.535 42.4062C106.827 40.8758 89.0117 43.6597 72.616 50.5196C58.8474 57.0976 49.121 69.9362 46.5193 84.9666C45.1625 92.9438 46.8555 101.139 51.2623 107.927L52.5362 104.801C30.9182 110.285 12.9639 125.289 3.73527 145.585C-0.398201 155.88 -1.12238 167.229 1.66896 177.966C4.39335 187.83 10.7108 196.319 19.3794 201.763C28.619 207.849 40.0962 209.488 50.6712 206.233L47.7395 204.57C54.0676 223.283 70.2509 236.949 89.7666 240.059C111.781 244.425 134.622 241.377 154.72 231.392C166.738 225.742 177.653 217.997 186.954 208.522L185.212 209.244C197.438 209.999 209.698 208.488 221.375 204.787C232.174 201.566 242.421 196.725 251.766 190.428C260.417 184.732 267.665 177.152 272.967 168.256C277.781 159.878 279.897 150.22 279.026 140.597C278.325 129.941 273.082 120.097 264.629 113.565V117.944C276.516 108.88 283.075 94.47 282.101 79.5577C280.96 68.0891 275.281 57.5519 266.327 50.2898C257.374 43.0277 245.888 39.6429 234.426 40.8884L236.217 45.2131C244.288 37.4795 246.493 25.4461 241.686 15.3558C236.639 5.54316 225.56 0.420857 214.81 2.92985C208.887 4.10066 203.604 7.41674 199.976 12.2418C199.317 13.3894 199.7 14.8538 200.838 15.5305C201.989 16.1668 203.436 15.7876 204.127 14.6692C209.776 8.04919 218.928 5.60249 227.129 8.51943C235.41 11.7486 240.348 20.2801 239.021 29.0647C238.536 33.9033 236.258 38.3855 232.633 41.6292C231.932 42.3617 231.73 43.439 232.118 44.3755C232.506 45.3121 233.411 45.9312 234.425 45.9539C247.717 44.4453 260.866 49.7825 269.343 60.1267C277.424 70.4194 279.488 84.2042 274.775 96.4107C272.36 103.275 267.933 109.253 262.069 113.565C261.4 113.969 260.951 114.656 260.851 115.432C260.751 116.207 261.011 116.986 261.556 117.546C275.588 130.011 278.409 150.85 268.196 166.594C262.827 175.242 255.512 182.518 246.835 187.844C237.296 193.916 226.871 198.47 215.933 201.342C210.022 202.957 203.967 203.991 197.855 204.432C194.891 204.624 191.915 204.606 188.948 204.51C187.495 204.279 186.018 204.243 184.555 204.402C183.273 205.08 182.16 206.04 181.301 207.208C173.601 214.662 164.826 220.917 155.269 225.766C137.08 235.454 116.319 239.224 95.8836 236.548C78.3158 234.923 62.7179 224.642 54.3042 209.142C53.4828 207.254 52.8238 205.299 52.3343 203.299C51.9741 202.039 50.6695 201.299 49.4021 201.637C31.6348 206.615 13.0433 197 6.84589 179.628C3.56518 169.971 3.57578 159.5 6.87602 149.849C10.1463 140.22 15.9689 131.658 23.7235 125.075C32.4632 117.651 42.6649 112.144 53.6685 108.909C54.3022 108.726 54.8169 108.263 55.0653 107.652C55.3138 107.041 55.2685 106.35 54.9424 105.777C48.1674 94.0813 49.1624 79.4478 57.4582 68.776C66.9259 56.6161 81.0368 48.9521 96.3952 47.6284C105.718 46.353 115.133 45.8854 124.537 46.231C125.583 46.2094 126.427 45.3676 126.451 44.3216C127.758 31.4409 134.466 19.7176 144.911 12.0611C155.552 4.48846 168.954 1.89601 181.653 4.95366C189.035 6.61641 195.92 9.9944 201.751 14.8137C202.156 15.1738 202.772 15.1557 203.156 14.7724C203.539 14.3891 203.557 13.7734 203.197 13.3681H203.198Z" fill="#E7C4B2"/>
</svg>
