<svg width="129" height="26" viewBox="0 0 129 26" fill="none" xmlns="http://www.w3.org/2000/svg">
<path d="M115.371 0.114664C118.606 0.114664 121.842 0.114664 125.078 0.114664C125.3 0.114664 125.523 0.100038 125.744 0.135989C125.805 0.145739 125.899 0.230438 125.913 0.293504C125.923 0.333111 125.936 0.371805 125.941 0.412021C125.959 0.533889 125.981 0.652706 125.989 0.773964C126.033 1.48384 126.055 2.19555 125.997 2.90421C125.784 5.48141 124.895 7.79627 123.298 9.83055C122.744 10.5307 122.118 11.1705 121.431 11.7396C121.322 11.831 121.215 11.9224 121.108 12.0138C121.06 12.0555 121.045 12.1811 121.078 12.2411C121.117 12.3118 121.155 12.3837 121.197 12.4544C121.406 12.8017 121.616 13.1485 121.827 13.4948C124.112 17.2548 126.396 21.0149 128.681 24.7752C128.786 24.9485 128.884 25.1258 128.984 25.3025C129.034 25.3924 128.959 25.5121 128.853 25.5189C128.812 25.5213 128.772 25.5262 128.731 25.5277C128.671 25.5295 128.61 25.5298 128.549 25.5298C126.809 25.5298 125.07 25.5298 123.332 25.5298C123.231 25.5298 123.129 25.5277 123.028 25.5216C122.977 25.5179 122.928 25.5026 122.884 25.4769C122.84 25.4512 122.803 25.4157 122.774 25.3732C122.669 25.2242 122.578 25.0658 122.483 24.9101C121.409 23.143 120.334 21.376 119.26 19.6089C118.355 18.1189 117.45 16.6283 116.545 15.1373C116.44 14.9639 116.33 14.7939 116.227 14.6193C116.125 14.4448 115.995 14.3558 115.778 14.4042C115.522 14.4612 115.261 14.4956 115.001 14.5322C114.821 14.5566 114.639 14.5685 114.457 14.5791C113.69 14.6248 112.921 14.6401 112.153 14.6401C111.627 14.6401 111.101 14.6373 110.575 14.6401C110.453 14.6401 110.332 14.6449 110.217 14.694C110.177 14.7113 110.146 14.7315 110.136 14.7765C110.118 14.8339 110.106 14.8929 110.099 14.9526C110.092 15.176 110.091 15.3993 110.091 15.6229C110.091 17.4306 110.091 19.2375 110.091 21.0436C110.091 22.2623 110.091 23.4804 110.091 24.6981C110.091 24.8809 110.084 25.0637 110.078 25.2465C110.073 25.2865 110.063 25.3258 110.049 25.3638C110.033 25.4247 109.933 25.51 109.873 25.514C109.752 25.5219 109.63 25.5323 109.51 25.5326C108.762 25.5342 108.013 25.5342 107.264 25.5326C106.617 25.5326 105.97 25.5326 105.322 25.5326C105.201 25.5326 105.079 25.5243 104.958 25.5179C104.867 25.5131 104.757 25.4137 104.746 25.3284C104.739 25.2675 104.729 25.2066 104.728 25.1472C104.724 24.9442 104.724 24.741 104.724 24.5378C104.724 20.5178 104.724 16.4978 104.724 12.4778C104.724 11.5841 104.724 10.6904 104.725 9.79673C104.725 9.67487 104.721 9.55299 104.746 9.43295C104.757 9.37994 104.855 9.26935 104.904 9.26265C104.964 9.25227 105.024 9.24505 105.085 9.24102C105.246 9.23767 105.408 9.23858 105.57 9.23858C108.038 9.23858 110.506 9.23786 112.972 9.23644C113.235 9.23644 113.498 9.23644 113.761 9.22883C114.633 9.20542 115.491 9.00867 116.287 8.64996C117.635 8.04976 118.717 7.13392 119.514 5.88356C119.544 5.83092 119.57 5.77649 119.593 5.72057C119.623 5.65415 119.567 5.53563 119.5 5.52832C119.42 5.51979 119.34 5.50608 119.259 5.50517C118.915 5.5009 118.571 5.49887 118.227 5.49907H105.729C105.507 5.49907 105.284 5.49907 105.061 5.49237C105.001 5.48863 104.942 5.47769 104.884 5.45977C104.855 5.45114 104.829 5.43553 104.807 5.41429C104.785 5.39306 104.769 5.36684 104.76 5.3379C104.745 5.30029 104.736 5.26063 104.733 5.2203C104.727 5.11874 104.724 5.01719 104.724 4.91563C104.724 3.55478 104.725 2.19453 104.726 0.834898C104.726 0.71303 104.728 0.591163 104.734 0.469295C104.74 0.408925 104.749 0.348919 104.761 0.289544C104.771 0.22861 104.865 0.14574 104.933 0.137209C104.993 0.129897 105.054 0.118624 105.113 0.117405C105.295 0.114054 105.477 0.113749 105.659 0.113749L115.371 0.114664Z" fill="white"/>
<path d="M22.7221 12.7835C22.7221 16.663 22.7221 20.5416 22.7221 24.4194C22.7221 24.6632 22.7208 24.9069 22.7182 25.1506C22.7182 25.2116 22.7066 25.2725 22.7002 25.3316C22.6933 25.3999 22.6119 25.4876 22.5443 25.4989C22.4852 25.5113 22.4254 25.5202 22.3652 25.5254C22.2438 25.5306 22.1224 25.5306 22.001 25.5306C20.6657 25.5306 19.3303 25.5306 17.995 25.5306C17.8539 25.5306 17.7124 25.5367 17.5719 25.5092C17.4867 25.4925 17.3865 25.3907 17.3807 25.2996C17.3759 25.2186 17.3695 25.1375 17.3689 25.0559C17.3671 24.8121 17.3671 24.5684 17.3671 24.3247C17.3671 20.4859 17.3671 16.6477 17.3671 12.8103C17.3671 12.5873 17.3816 12.3637 17.3495 12.1401C17.3431 12.0956 17.3246 12.0618 17.2779 12.0541C17.2405 12.0481 17.1886 12.0374 17.1653 12.0563C17.0551 12.1452 16.9496 12.2396 16.849 12.3393C16.2036 12.9836 15.5592 13.6291 14.9158 14.2758C13.9 15.2952 12.8841 16.3144 11.8682 17.3334C11.7684 17.4337 11.6631 17.529 11.5593 17.625C11.5022 17.6777 11.389 17.6829 11.335 17.6351C11.2439 17.5546 11.1529 17.4757 11.0664 17.3913C10.3641 16.689 9.66268 15.9859 8.96203 15.2821C6.14385 12.4538 3.32619 9.62482 0.509026 6.79526C-0.0794339 6.20359 0.00523828 6.39919 0.00311388 5.58298C-0.00143842 3.95818 0.00129296 2.33369 0.00311388 0.708282C0.00311388 0.545894 0.0100941 0.383505 0.0164673 0.220812C0.0201092 0.129411 0.115707 0.0380099 0.216465 0.0258232C0.236191 0.0233858 0.255918 0.0157692 0.277162 0.0145506C0.580423 -0.00398894 0.884574 -0.00235944 1.18762 0.0194263C1.28968 0.0268323 1.38611 0.0692086 1.46076 0.139464C1.59338 0.264988 1.72206 0.394166 1.85074 0.523346C4.86881 3.55318 7.88708 6.58291 10.9056 9.61253C11.0482 9.75573 11.1787 9.91141 11.3456 10.0296C11.3872 10.0601 11.4791 10.0656 11.5183 10.0375C11.5525 10.0165 11.5855 9.99343 11.6169 9.96838C11.7052 9.88521 11.7917 9.7996 11.8776 9.71338C12.1356 9.45522 12.3931 9.19686 12.6503 8.9383C15.4681 6.10955 18.286 3.2808 21.1042 0.452054C21.2183 0.337499 21.3343 0.224164 21.4535 0.114483C21.5145 0.059517 21.5918 0.0263108 21.6736 0.0200325C21.9558 -0.00251297 22.2386 -0.0143921 22.5203 0.0306989C22.5699 0.038653 22.6156 0.0626572 22.6504 0.0990634C22.6852 0.13547 22.7071 0.182286 22.713 0.232389C22.7169 0.293323 22.7227 0.354257 22.7236 0.415191C22.7257 0.537058 22.7254 0.658926 22.7254 0.780793V12.7826L22.7221 12.7835Z" fill="white"/>
<path d="M83.5371 7.47436C83.5371 9.42424 83.5371 11.3733 83.5371 13.3216C83.5371 13.6058 83.5371 13.8901 83.5434 14.1746C83.5529 14.6847 83.639 15.1834 83.7644 15.677C83.8316 15.932 83.9175 16.1817 84.0214 16.424C84.3631 17.2415 84.8786 17.9742 85.5318 18.571C86.1849 19.1677 86.96 19.614 87.8029 19.8786C88.1297 19.9862 88.4674 20.0569 88.8098 20.0895C89.0921 20.1123 89.3725 20.1504 89.6569 20.1428C91.9564 20.0819 93.6022 18.8403 94.543 17.405C94.9462 16.7943 95.2342 16.1143 95.3928 15.3991C95.4802 15.003 95.5445 14.6015 95.5445 14.1929C95.5445 14.0101 95.5475 13.8273 95.5478 13.6445C95.5478 12.4055 95.5484 11.1665 95.5497 9.92755C95.5497 9.76547 95.5582 9.60338 95.566 9.4416C95.57 9.35416 95.6777 9.25485 95.7709 9.24784C95.8513 9.24175 95.9317 9.23322 96.0137 9.23322C97.4907 9.23322 98.967 9.23322 100.443 9.23322C100.523 9.23322 100.604 9.24357 100.686 9.25058C100.78 9.2588 100.883 9.35782 100.889 9.44587C100.895 9.54733 100.903 9.64848 100.903 9.75054C100.903 11.8629 100.903 13.9745 100.903 16.0852C100.903 17.2189 100.66 18.2989 100.208 19.3351C99.8676 20.1183 99.3953 20.8368 98.8121 21.4593C97.1102 23.2851 95.0598 24.5255 92.6417 25.1375C92.0538 25.2862 91.4581 25.4063 90.8511 25.4477C90.5688 25.4672 90.2875 25.5065 90.005 25.5175C89.4997 25.5416 88.9934 25.5247 88.4909 25.4669C88.1097 25.4197 87.7237 25.4148 87.3486 25.3203C86.1291 25.1214 84.9485 24.7307 83.8503 24.1626C82.5871 23.5137 81.4387 22.6607 80.4512 21.6378C79.6206 20.782 79.0036 19.7897 78.6224 18.6551C78.324 17.7688 78.1765 16.8385 78.186 15.903C78.186 15.3343 78.186 14.7656 78.186 14.1969C78.186 9.79096 78.186 5.38515 78.186 0.979433C78.186 0.776829 78.1711 0.573917 78.2045 0.371922C78.216 0.303676 78.2956 0.215933 78.3629 0.20923C78.4027 0.205269 78.4421 0.193994 78.4822 0.191862C78.5629 0.187901 78.644 0.18699 78.725 0.18699C80.1413 0.18699 81.557 0.18699 82.9723 0.18699C83.0937 0.18699 83.2151 0.196127 83.3365 0.203439C83.4299 0.209533 83.5204 0.308247 83.5268 0.407265C83.5307 0.468198 83.5365 0.529132 83.5371 0.590066C83.5389 0.772867 83.5389 0.955668 83.5389 1.13847L83.5371 7.47436Z" fill="white"/>
<path d="M59.0998 19.5878C59.0998 17.8411 59.0998 16.0943 59.0998 14.3475C59.0998 14.2056 59.0971 14.0633 59.0998 13.921C59.0987 13.7984 59.0621 13.6788 58.9945 13.5767C58.9641 13.5252 58.9253 13.4768 58.8895 13.4278L49.7203 0.840363C49.601 0.676756 49.4805 0.51376 49.3652 0.347107C49.3472 0.311311 49.3393 0.271305 49.3421 0.231331C49.3421 0.19538 49.4332 0.125917 49.475 0.122566C49.4951 0.122566 49.5148 0.115863 49.5357 0.114949C49.5761 0.113121 49.6165 0.111899 49.6571 0.111899C51.4983 0.111899 53.3394 0.111899 55.1806 0.111899C55.3423 0.111899 55.5044 0.1119 55.6662 0.123477C55.7169 0.127414 55.7664 0.14168 55.8115 0.165406C55.8567 0.189132 55.8965 0.221823 55.9287 0.261493C56.0325 0.385493 56.1272 0.517718 56.2228 0.648726C57.3578 2.20518 58.4924 3.76194 59.6267 5.319C60.176 6.07275 60.726 6.82609 61.2767 7.57903C61.4084 7.75848 61.5499 7.93062 61.6876 8.1058C61.718 8.1448 61.8175 8.14967 61.853 8.11677C61.8843 8.09184 61.9135 8.06444 61.9404 8.03481C62.0752 7.85719 62.2093 7.67896 62.3407 7.4989C63.9298 5.31991 65.5187 3.14081 67.1076 0.961621C67.2748 0.73251 67.4454 0.504618 67.6171 0.279772C67.654 0.231099 67.7013 0.191335 67.7555 0.163394C67.8097 0.135453 67.8694 0.120045 67.9303 0.1183C68.0311 0.112207 68.1325 0.111595 68.2338 0.111595C70.0547 0.111595 71.8757 0.111595 73.6966 0.111595C73.8377 0.111595 73.9816 0.0960562 74.1172 0.145717C74.1347 0.154595 74.1501 0.166999 74.1626 0.18215C74.1751 0.1973 74.1843 0.214871 74.1897 0.233767C74.1986 0.273302 74.1927 0.314737 74.1731 0.350152C74.0993 0.47202 74.0213 0.589927 73.9385 0.704482C73.3543 1.5082 72.7692 2.3112 72.1831 3.1135C69.735 6.47298 67.2868 9.83266 64.8387 13.1925C64.7434 13.3236 64.6509 13.457 64.5571 13.5886C64.5091 13.6547 64.4822 13.7338 64.48 13.8156C64.4755 14.0185 64.4712 14.2214 64.4712 14.4249C64.4712 17.7966 64.4712 21.1677 64.4712 24.5381C64.4712 24.7413 64.4712 24.9442 64.467 25.1474C64.4634 25.208 64.4567 25.2683 64.4469 25.3281C64.439 25.3954 64.3559 25.4865 64.2925 25.4984C64.2537 25.5089 64.2143 25.5164 64.1744 25.521C64.0126 25.5255 63.8509 25.5286 63.6888 25.5286C62.4142 25.5286 61.1395 25.5286 59.8649 25.5286C59.6828 25.5286 59.5007 25.5188 59.3186 25.5109C59.2276 25.5073 59.1265 25.4022 59.1183 25.3126C59.1147 25.2721 59.1077 25.2318 59.1068 25.1907C59.1041 25.0688 59.1022 24.947 59.1022 24.8251C59.1022 23.9111 59.1022 22.9971 59.1022 22.0831L59.0998 19.5878Z" fill="white"/>
<path d="M51.1114 25.5307C50.1807 25.5307 49.25 25.5307 48.3194 25.5307C48.198 25.5307 48.0766 25.5243 47.9552 25.517C47.9145 25.5132 47.8752 25.5002 47.8402 25.4792C47.8051 25.4581 47.7753 25.4294 47.7527 25.3951C47.672 25.2788 47.598 25.1578 47.5312 25.0329C47.0608 24.1798 46.5937 23.3267 46.123 22.4755C43.2298 17.2407 40.3371 12.0061 37.4448 6.77165C37.2093 6.34512 36.9743 5.91858 36.7398 5.49204C36.6913 5.40339 36.6488 5.31138 36.6075 5.21784C36.5963 5.1895 36.5914 5.15905 36.593 5.12861C36.5946 5.09816 36.6028 5.06842 36.6169 5.04144C36.6688 4.93145 36.7237 4.82269 36.782 4.71605C37.0349 4.25357 37.2886 3.79159 37.5432 3.33012C37.9347 2.61993 38.3289 1.91127 38.7189 1.20018C38.8651 0.933591 39.0023 0.662128 39.1437 0.393105C39.1707 0.338507 39.202 0.286235 39.2375 0.236814C39.2879 0.171919 39.3532 0.119515 39.4378 0.113422C39.7611 0.091319 40.0855 0.090302 40.409 0.110376C40.4494 0.114371 40.4883 0.127665 40.5227 0.149225C40.5571 0.170785 40.5861 0.200028 40.6075 0.234679C40.6405 0.285241 40.6701 0.337967 40.6961 0.392499C40.8263 0.644765 40.9495 0.900686 41.0864 1.1493C42.4662 3.65286 43.8473 6.15561 45.2296 8.65755C48.1863 14.0197 51.1423 19.3819 54.0974 24.7441C54.1951 24.9214 54.2883 25.1014 54.3785 25.283C54.3944 25.3202 54.3974 25.3618 54.387 25.4009C54.3772 25.4389 54.3531 25.4717 54.3199 25.4923C54.2264 25.5365 54.1226 25.5283 54.0219 25.5286H51.1099L51.1114 25.5307Z" fill="white"/>
<path d="M28.7317 25.5309C27.8415 25.5309 26.9512 25.5309 26.061 25.5309C25.8996 25.5309 25.7381 25.5205 25.5754 25.5111C25.4765 25.5053 25.4146 25.378 25.4595 25.2811C25.485 25.2259 25.5081 25.1693 25.5366 25.1156C25.6037 24.9904 25.6735 24.867 25.742 24.7424C26.4461 23.4628 27.1503 22.1838 27.8546 20.9054C29.912 17.1755 31.9696 13.4462 34.0272 9.71768C34.1246 9.54097 34.2048 9.35208 34.3416 9.19974C34.3811 9.15526 34.4691 9.15282 34.4973 9.1973C34.5186 9.23112 34.551 9.25824 34.572 9.29236C34.6248 9.37889 34.6749 9.46724 34.7237 9.55559C34.8718 9.82126 35.0205 10.0866 35.1674 10.3532C35.9217 11.7202 36.6754 13.0876 37.4287 14.4556C37.5264 14.6332 37.6193 14.8136 37.7131 14.9933C37.7319 15.0293 37.7412 15.0696 37.74 15.1102C37.7389 15.1509 37.7274 15.1906 37.7067 15.2255C37.6314 15.3693 37.5568 15.5134 37.4785 15.6554C36.6071 17.236 35.7353 18.8164 34.8633 20.3966C34.0213 21.9236 33.1791 23.4508 32.3368 24.9782C32.2588 25.1199 32.175 25.2588 32.087 25.3944C32.0654 25.4291 32.036 25.4583 32.0011 25.4795C31.9662 25.5006 31.9268 25.5132 31.8861 25.5163C31.7247 25.5266 31.5629 25.5297 31.4005 25.53C30.5111 25.5314 29.6215 25.5317 28.7317 25.5309Z" fill="white"/>
<path d="M0.00169401 18.6021C0.00169401 16.5742 0.00169401 14.5462 0.00169401 12.5182C0.00169401 12.3156 0.00928069 12.113 0.0135295 11.9103C0.0136128 11.8907 0.0187044 11.8714 0.0283195 11.8543C0.0379345 11.8372 0.051753 11.8228 0.0684604 11.8126C0.0942586 11.7972 0.124323 11.7906 0.154144 11.7939C0.183965 11.7971 0.211935 11.81 0.233861 11.8305C0.278777 11.8714 0.324906 11.9104 0.369215 11.9524C0.441749 12.0228 0.512158 12.0953 0.58378 12.1657C2.02777 13.6128 3.47165 15.0601 4.91544 16.5075C5.04351 16.6361 5.18402 16.7543 5.28448 16.9087C5.30663 16.942 5.32247 16.9791 5.33122 17.0181C5.34258 17.0778 5.34867 17.1384 5.34942 17.1991C5.35216 17.3612 5.35216 17.5236 5.35216 17.6866V24.6833C5.35216 24.8457 5.35216 25.0081 5.34851 25.1707C5.34391 25.2311 5.33601 25.2911 5.32484 25.3505C5.31635 25.4114 5.22469 25.5001 5.15793 25.5062C5.05778 25.5153 4.95732 25.5287 4.85717 25.5293C4.33184 25.5318 3.8065 25.5309 3.28147 25.5309C2.39246 25.5309 1.50355 25.5309 0.614736 25.5309C0.473918 25.5309 0.3331 25.5178 0.192586 25.5095C0.123391 25.5053 0.0350771 25.4203 0.026883 25.3539C0.0164139 25.2944 0.00891881 25.2344 0.00442528 25.1741C0.000783445 24.9913 0.00139023 24.8085 0.00139023 24.6257C0.00159256 22.6187 0.00169401 20.6109 0.00169401 18.6021Z" fill="white"/>
<path d="M98.2786 0.188496C98.965 0.188496 99.6518 0.188496 100.339 0.188496C100.46 0.188496 100.581 0.198552 100.701 0.206474C100.794 0.212872 100.883 0.311279 100.889 0.411515C100.892 0.451731 100.898 0.492252 100.899 0.533383C100.901 0.65525 100.902 0.777118 100.902 0.898985C100.902 2.19667 100.902 3.49426 100.902 4.79174C100.902 4.95382 100.892 5.1156 100.886 5.27738C100.882 5.36604 100.779 5.46719 100.688 5.47602C100.627 5.48151 100.566 5.48943 100.506 5.49095C100.384 5.4943 100.263 5.4946 100.141 5.4946C98.8487 5.4946 97.5561 5.4946 96.2634 5.4946C96.1223 5.4946 95.9809 5.49034 95.8385 5.48486C95.7988 5.47963 95.7594 5.47158 95.7208 5.46079C95.6528 5.44738 95.5712 5.36055 95.5657 5.29414C95.5593 5.2137 95.5487 5.13297 95.5484 5.05223C95.5484 3.59266 95.5484 2.13289 95.5484 0.67292C95.5484 0.572074 95.5627 0.471533 95.5718 0.370992C95.5778 0.30366 95.6628 0.21866 95.7329 0.213481C95.8543 0.204036 95.9739 0.190935 96.0944 0.19063C96.8227 0.188498 97.5487 0.19063 98.2758 0.19063L98.2786 0.188496Z" fill="white"/>
</svg>
